<?xml version="1.0" encoding="utf-8"?>
<!-- Generator: Adobe Illustrator 27.8.1, SVG Export Plug-In . SVG Version: 6.00 Build 0)  -->
<svg version="1.1" id="Capa_1" xmlns="http://www.w3.org/2000/svg" xmlns:xlink="http://www.w3.org/1999/xlink" x="0px" y="0px"
	 viewBox="0 0 800 800" style="enable-background:new 0 0 800 800;" xml:space="preserve">
<g>
	<path d="M512.79,422.78c1.17,41.14-26.84,77.41-66.91,86.85L290.37,546.2l-4.86-178.37c-0.97-37.83,24.7-71.09,61.46-79.75
		l161.15-37.93L512.79,422.78z"/>
	<path d="M507.05,213.68l-200.73,47.27c-8.17,1.95-16.73,0.29-23.63-4.47L115.8,139.77c-20.81-14.59-14.59-47.07,10.21-52.81
		L446,11.64c19.67-4.63,39.98,4.97,48.73,23.18c5.09,10.6,8.11,22.47,8.44,35.12L507.05,213.68z"/>
	<path d="M261.87,552.91L112,588.21c-20.86,4.9-41.46,1.87-58.89-6.88c-11.05-5.54-18.07-16.8-18.41-29.16l-9.65-355.8
		c-0.88-31.02,33.94-49.7,59.33-32l154.64,108.15c9.82,6.9,15.76,17.99,16.05,29.95L261.87,552.91z"/>
	<path d="M639.22,720.77l-293.04,68.91c-16.06,3.78-32.67-3.55-40.71-17.96c-6-10.75-9.58-23.14-9.95-36.56l-4.09-149.09
		l183.71-43.28c10.7-2.53,22.08-0.29,31.12,6.03l146.37,102.41C680.07,670.39,671.9,713.09,639.22,720.77z"/>
	<path d="M266.93,738.66c0.87,30.93-33.94,49.7-59.33,31.9L52.97,662.42c-0.03-0.02-0.05-0.04-0.08-0.06
		c-4.76-3.42-5.25-10.4-1.04-14.48c4.71-4.56,10.78-8.01,18.04-9.68l193.05-45.42L266.93,738.66z"/>
	<path d="M737.94,149.55c4.06,2.84,2.9,9.22-1.93,10.32c-0.04,0.01-0.08,0.02-0.12,0.03l-199.76,46.97L532.24,64.2
		c-0.68-24.7,26.94-39.58,47.17-25.48L737.94,149.55z"/>
	<path d="M774.99,637.03c0.68,24.7-27.04,39.58-47.27,25.38L557.43,543.28c-7.78-5.45-12.55-14.3-12.84-23.83l-7.49-276.11
		l157.84-37.15c12.28-2.87,24.47-2.76,35.86-0.17c19.18,4.36,32.94,21.22,33.48,40.89L774.99,637.03z"/>
</g>
</svg>
