<svg xmlns="http://www.w3.org/2000/svg" xmlns:xlink="http://www.w3.org/1999/xlink" width="1080" zoomAndPan="magnify" viewBox="0 0 810 809.999993" height="1080" preserveAspectRatio="xMidYMid meet" version="1.0"><defs><clipPath id="101fb55845"><path d="M 130.394531 130.394531 L 679.394531 130.394531 L 679.394531 679.394531 L 130.394531 679.394531 Z M 130.394531 130.394531 " clip-rule="nonzero"/></clipPath></defs><rect x="-81" width="972" fill="#ffffff" y="-80.999999" height="971.999992" fill-opacity="1"/><rect x="-81" width="972" fill="#ffffff" y="-80.999999" height="971.999992" fill-opacity="1"/><rect x="-81" width="972" fill="#03051f" y="-80.999999" height="971.999992" fill-opacity="1"/><g clip-path="url(#101fb55845)"><path fill="#02051f" d="M 1707.609375 -155.160156 C 1707.609375 217.175781 1707.609375 589.515625 1707.046875 962.394531 C 1705.089844 962.945312 1703.691406 962.953125 1702.296875 962.953125 C 1125.464844 962.953125 548.636719 962.953125 -28.195312 962.953125 C -29.390625 962.953125 -30.597656 963.042969 -31.785156 962.929688 C -33.113281 962.800781 -34.421875 962.492188 -35.613281 962.28125 C -36.855469 954.699219 -36.492188 -150.234375 -35.117188 -155.160156 C 545.664062 -155.160156 1126.636719 -155.160156 1707.609375 -155.160156 M 484.164062 320.859375 C 484.105469 322.050781 483.96875 323.246094 484 324.433594 C 484.910156 358.570312 485.839844 392.710938 486.757812 426.847656 C 487.109375 440.023438 487.488281 453.199219 487.765625 466.375 C 487.90625 472.960938 490.042969 478.390625 495.652344 482.300781 C 525.773438 503.308594 555.84375 524.394531 585.984375 545.378906 C 587.898438 546.714844 590.171875 547.832031 592.4375 548.324219 C 602.648438 550.546875 611.9375 543.304688 611.988281 532.785156 C 612.039062 522.605469 611.414062 512.425781 611.144531 502.246094 C 609.769531 449.9375 608.417969 397.632812 607.039062 345.328125 C 606.835938 337.542969 606.582031 329.753906 606.226562 321.976562 C 605.714844 310.8125 598.664062 302.132812 587.597656 300.175781 C 582.214844 299.222656 576.308594 298.808594 571.042969 299.976562 C 542.242188 306.363281 513.570312 313.320312 484.164062 320.859375 M 211.769531 429.082031 C 212.238281 447.636719 212.753906 466.191406 213.15625 484.746094 C 213.359375 493.960938 217.683594 500.203125 226.195312 503.59375 C 235.738281 507.402344 245.488281 508.191406 255.527344 505.789062 C 270.445312 502.21875 285.402344 498.800781 300.332031 495.28125 C 311.9375 492.542969 323.527344 489.742188 335.417969 486.902344 C 335.417969 484.511719 335.46875 482.34375 335.410156 480.179688 C 334.273438 438.285156 333.003906 396.390625 332.074219 354.492188 C 331.875 345.421875 328.175781 339.101562 320.855469 334.042969 C 294.605469 315.898438 268.511719 297.519531 242.351562 279.238281 C 241.042969 278.324219 239.757812 277.359375 238.367188 276.585938 C 224.910156 269.097656 208.625 278.398438 208.175781 293.828125 C 208.113281 296.019531 208.191406 298.21875 208.25 300.414062 C 209.414062 342.90625 210.582031 385.402344 211.769531 429.082031 M 367.144531 327.847656 C 400.640625 319.972656 434.132812 312.09375 467.664062 304.210938 C 466.988281 277.488281 466.492188 251.535156 465.539062 225.601562 C 465.351562 220.527344 463.941406 215.3125 462.132812 210.523438 C 457.476562 198.171875 446.773438 192.691406 433.828125 195.710938 C 391.695312 205.542969 349.585938 215.46875 307.46875 225.355469 C 292.910156 228.773438 278.359375 232.207031 263.792969 235.585938 C 258.675781 236.769531 254.539062 239.222656 252.054688 244.015625 C 248.257812 251.351562 250.203125 259.40625 257.378906 264.597656 C 266.109375 270.917969 275.011719 276.996094 283.847656 283.171875 C 304.128906 297.355469 324.4375 311.503906 344.6875 325.734375 C 349.277344 328.960938 354.015625 331.105469 359.769531 329.601562 C 361.890625 329.042969 364.027344 328.550781 367.144531 327.847656 M 457.679688 481.117188 C 454.527344 481.4375 451.296875 481.429688 448.230469 482.128906 C 428.597656 486.597656 408.992188 491.199219 389.390625 495.800781 C 377.003906 498.710938 364.632812 501.695312 352.046875 504.695312 C 351.953125 506.109375 351.785156 507.265625 351.8125 508.421875 C 352.410156 533.175781 353.019531 557.929688 353.664062 582.6875 C 353.71875 584.878906 353.832031 587.101562 354.257812 589.242188 C 354.953125 592.746094 355.695312 596.273438 356.832031 599.648438 C 360.386719 610.203125 369.503906 617.394531 383.859375 613.886719 C 412.324219 606.925781 440.894531 600.398438 469.425781 593.695312 C 491.742188 588.453125 514.078125 583.277344 536.363281 577.898438 C 539.792969 577.070312 543.351562 575.84375 546.242188 573.894531 C 557.882812 566.035156 558.027344 547.898438 545.542969 539.328125 C 519.542969 521.488281 493.855469 503.191406 467.929688 485.234375 C 465.226562 483.363281 461.800781 482.53125 457.679688 481.117188 M 1196.800781 416.125 C 1197.300781 419.070312 1197.628906 422.058594 1198.328125 424.957031 C 1205.363281 454.167969 1228.675781 478.140625 1263.664062 475.25 C 1277.144531 474.132812 1288.726562 469.152344 1297.800781 458.886719 C 1298.734375 457.832031 1299.746094 456.84375 1301.722656 454.777344 C 1301.722656 461.90625 1301.722656 467.566406 1301.722656 473.269531 C 1316.433594 473.269531 1330.523438 473.269531 1344.9375 473.269531 C 1344.9375 410.78125 1344.9375 348.621094 1344.9375 286.289062 C 1330.398438 286.289062 1316.15625 286.289062 1301.472656 286.289062 C 1301.472656 296.984375 1301.472656 307.324219 1301.472656 317.667969 C 1301.472656 328.132812 1301.472656 338.597656 1301.472656 349.839844 C 1297.851562 346.449219 1295.1875 343.542969 1292.121094 341.160156 C 1268.507812 322.792969 1231.613281 327.484375 1212.5 351.269531 C 1197.394531 370.066406 1194.046875 391.835938 1196.800781 416.125 M 1002.925781 423.066406 C 1002.925781 414.882812 1002.792969 406.695312 1002.984375 398.515625 C 1003.074219 394.550781 1003.398438 390.519531 1004.261719 386.660156 C 1006.851562 375.070312 1015.875 367.742188 1027.699219 367.207031 C 1041.296875 366.589844 1050.953125 372.441406 1054.632812 384.328125 C 1056.082031 389.003906 1056.601562 394.121094 1056.644531 399.042969 C 1056.847656 421.597656 1056.734375 444.15625 1056.734375 466.710938 C 1056.734375 468.832031 1056.734375 470.957031 1056.734375 473.21875 C 1071.511719 473.21875 1085.582031 473.21875 1099.777344 473.21875 C 1099.878906 471.679688 1100.023438 470.503906 1100.023438 469.324219 C 1100.035156 442.976562 1100.082031 416.628906 1099.96875 390.28125 C 1099.949219 385.511719 1099.480469 380.714844 1098.800781 375.988281 C 1095.78125 354.898438 1081.445312 332.945312 1051.492188 330.746094 C 1033.734375 329.441406 1017.894531 334.019531 1005.386719 347.492188 C 1004.835938 348.085938 1004.046875 348.453125 1002.667969 349.414062 C 1002.667969 327.796875 1002.667969 307.113281 1002.667969 286.382812 C 988.0625 286.382812 973.855469 286.382812 959.679688 286.382812 C 959.679688 348.871094 959.679688 410.90625 959.679688 473.160156 C 974.160156 473.160156 988.390625 473.160156 1002.925781 473.160156 C 1002.925781 456.578125 1002.925781 440.421875 1002.925781 423.066406 M 457.570312 450.675781 C 466.832031 440.917969 471.175781 429.328125 470.789062 415.871094 C 469.9375 386.335938 469.183594 356.800781 468.371094 327.261719 C 468.34375 326.296875 468.132812 325.332031 467.996094 324.265625 C 467.011719 324.335938 466.199219 324.285156 465.441406 324.460938 C 437.890625 330.941406 410.386719 337.617188 382.789062 343.890625 C 360.78125 348.890625 347.539062 368.394531 348.351562 388.839844 C 349.558594 419.160156 350.078125 449.503906 350.90625 479.839844 C 350.933594 480.804688 351.125 481.769531 351.257812 482.890625 C 353.058594 482.617188 354.652344 482.480469 356.191406 482.121094 C 381.804688 476.117188 407.40625 470.066406 433.019531 464.0625 C 442.148438 461.921875 450.285156 457.96875 457.570312 450.675781 M 1430.507812 330.304688 C 1428.136719 330.644531 1425.75 330.886719 1423.402344 331.332031 C 1396.960938 336.339844 1379.183594 351.453125 1370.875 377.121094 C 1366.496094 390.648438 1365.984375 404.640625 1368.550781 418.5625 C 1373.542969 445.625 1388.941406 463.988281 1415.417969 472.308594 C 1428.210938 476.328125 1441.445312 476.644531 1454.515625 473.957031 C 1478.800781 468.960938 1495.828125 455.070312 1504.425781 431.484375 C 1504.988281 429.941406 1505.140625 428.25 1505.535156 426.386719 C 1489.929688 426.386719 1474.984375 426.386719 1460.082031 426.386719 C 1450.558594 439.085938 1440.84375 442.761719 1428.285156 438.460938 C 1417.691406 434.832031 1411.195312 425.347656 1411.402344 413.203125 C 1443.628906 413.203125 1475.867188 413.203125 1508.660156 413.203125 C 1508.660156 405.097656 1509.152344 397.542969 1508.570312 390.070312 C 1506.523438 363.738281 1488.742188 341.742188 1463.582031 333.660156 C 1453.148438 330.308594 1442.464844 329.691406 1430.507812 330.304688 M 812.78125 451.328125 C 821.789062 462.648438 833.40625 469.960938 847.355469 473.5625 C 856.9375 476.035156 866.738281 476.375 876.488281 475.136719 C 902.320312 471.859375 920.292969 458.367188 929.273438 433.585938 C 929.578125 432.742188 929.578125 431.789062 929.734375 430.773438 C 921.1875 430.773438 913.082031 430.773438 905.136719 430.773438 C 894.371094 451.796875 875.984375 460.191406 853.867188 454.414062 C 834.8125 449.4375 821.214844 431.855469 822.105469 412.75 C 858.710938 412.75 895.347656 412.75 932.253906 412.75 C 932.253906 404.242188 933.066406 396.191406 932.105469 388.363281 C 929.144531 364.261719 916.5 346.675781 893.902344 337.484375 C 874.171875 329.460938 854.046875 330.289062 834.550781 338.894531 C 823.9375 343.578125 815.746094 351.3125 809.105469 360.925781 C 793.886719 382.957031 792.464844 426.25 812.78125 451.328125 M 337.367188 545.339844 C 336.964844 533.214844 336.566406 521.089844 336.160156 508.835938 C 335.046875 508.890625 334.234375 508.808594 333.480469 508.984375 C 299.945312 516.875 266.410156 524.761719 232.898438 532.742188 C 230.417969 533.332031 227.921875 534.300781 225.746094 535.609375 C 219.605469 539.300781 219.515625 543.308594 225.386719 547.425781 C 252 566.074219 278.65625 584.65625 305.253906 603.328125 C 312.425781 608.363281 319.914062 609.503906 327.71875 605.300781 C 335.535156 601.085938 338.679688 594.125 338.425781 585.410156 C 338.054688 572.453125 337.742188 559.488281 337.367188 545.339844 M 1173.117188 375.132812 C 1173.117188 360.976562 1173.117188 346.824219 1173.117188 332.476562 C 1158.460938 332.476562 1144.21875 332.476562 1130.019531 332.476562 C 1128.8125 345.890625 1129.355469 468.941406 1130.574219 473.164062 C 1144.671875 473.164062 1158.742188 473.164062 1173.117188 473.164062 C 1173.117188 440.605469 1173.117188 408.46875 1173.117188 375.132812 M 534.074219 288.539062 C 552.128906 284.339844 570.1875 280.148438 588.242188 275.941406 C 589.210938 275.714844 590.210938 275.503906 591.109375 275.09375 C 593.519531 273.988281 593.949219 271.78125 592.121094 269.8125 C 591.453125 269.09375 590.582031 268.554688 589.765625 267.984375 C 562.285156 248.785156 534.796875 229.589844 507.316406 210.390625 C 501.765625 206.511719 495.914062 205.703125 489.875 209.023438 C 483.902344 212.304688 481.171875 217.480469 481.363281 224.332031 C 482.027344 248.082031 482.605469 271.835938 483.246094 295.589844 C 483.285156 297.085938 483.570312 298.574219 483.78125 300.429688 C 500.585938 296.480469 516.851562 292.65625 534.074219 288.539062 M 739.304688 350.304688 C 738.316406 351.589844 737.324219 352.878906 736.335938 354.167969 C 736 354.03125 735.664062 353.898438 735.332031 353.765625 C 735.332031 347.511719 735.332031 341.257812 735.332031 334.953125 C 727.269531 334.953125 719.757812 334.953125 712.355469 334.953125 C 712.355469 381.25 712.355469 427.210938 712.355469 473.160156 C 720.273438 473.160156 727.742188 473.160156 735.488281 473.160156 C 735.488281 470.535156 735.488281 468.347656 735.488281 466.164062 C 735.488281 444.023438 735.402344 421.878906 735.550781 399.738281 C 735.589844 394.382812 735.886719 388.933594 736.949219 383.703125 C 739.839844 369.484375 748.136719 360.136719 762.792969 357.402344 C 766.878906 356.636719 771.105469 356.625 775.265625 356.273438 C 776.789062 356.144531 778.316406 356.019531 779.71875 355.90625 C 779.71875 347.789062 779.71875 340.121094 779.71875 332.242188 C 763.535156 332.128906 749.988281 336.933594 739.304688 350.304688 M 1160.910156 271.996094 C 1155.238281 270.339844 1149.539062 270.140625 1143.761719 271.492188 C 1134.171875 273.730469 1127.441406 280.929688 1125.824219 290.808594 C 1124.324219 299.96875 1128.433594 308.804688 1136.460938 313.808594 C 1140.839844 316.535156 1145.710938 317.558594 1150.730469 317.660156 C 1167.332031 318 1179.28125 306.273438 1176.753906 290.230469 C 1175.347656 281.335938 1169.964844 275.640625 1160.910156 271.996094 Z M 1160.910156 271.996094 " fill-opacity="1" fill-rule="nonzero"/><path fill="#000002" d="M 1707.609375 -155.761719 C 1126.636719 -155.160156 545.664062 -155.160156 -35.117188 -155.160156 C -36.492188 -150.234375 -36.855469 954.699219 -35.613281 962.28125 C -34.421875 962.492188 -33.113281 962.800781 -31.785156 962.929688 C -30.597656 963.042969 -29.390625 962.953125 -28.195312 962.953125 C 548.636719 962.953125 1125.464844 962.953125 1702.296875 962.953125 C 1703.691406 962.953125 1705.089844 962.945312 1707.046875 962.941406 C 1707.609375 964.144531 1707.609375 965.34375 1707.609375 966.539062 C 1125.191406 966.539062 542.769531 966.539062 -39.761719 966.539062 C -39.761719 591.964844 -39.761719 217.390625 -39.761719 -157.558594 C -37.414062 -157.558594 -34.9375 -157.558594 -32.457031 -157.558594 C 545.765625 -157.558594 1123.992188 -157.558594 1702.21875 -157.484375 C 1703.972656 -157.484375 1706.28125 -158.867188 1707.609375 -155.761719 Z M 1707.609375 -155.761719 " fill-opacity="1" fill-rule="nonzero"/></g><path fill="#f9f9f9" d="M 484.507812 320.46875 C 513.570312 313.320312 542.242188 306.363281 571.042969 299.976562 C 576.308594 298.808594 582.214844 299.222656 587.597656 300.175781 C 598.664062 302.132812 605.714844 310.8125 606.226562 321.976562 C 606.582031 329.753906 606.835938 337.542969 607.039062 345.328125 C 608.417969 397.632812 609.769531 449.9375 611.144531 502.246094 C 611.414062 512.425781 612.039062 522.605469 611.988281 532.785156 C 611.9375 543.304688 602.648438 550.546875 592.4375 548.324219 C 590.171875 547.832031 587.898438 546.714844 585.984375 545.378906 C 555.84375 524.394531 525.773438 503.308594 495.652344 482.300781 C 490.042969 478.390625 487.90625 472.960938 487.765625 466.375 C 487.488281 453.199219 487.109375 440.023438 486.757812 426.847656 C 485.839844 392.710938 484.910156 358.570312 484 324.433594 C 483.96875 323.246094 484.105469 322.050781 484.507812 320.46875 Z M 484.507812 320.46875 " fill-opacity="1" fill-rule="nonzero"/><path fill="#f9f9f9" d="M 211.757812 428.488281 C 210.582031 385.402344 209.414062 342.90625 208.25 300.414062 C 208.191406 298.21875 208.113281 296.019531 208.175781 293.828125 C 208.625 278.398438 224.910156 269.097656 238.367188 276.585938 C 239.757812 277.359375 241.042969 278.324219 242.351562 279.238281 C 268.511719 297.519531 294.605469 315.898438 320.855469 334.042969 C 328.175781 339.101562 331.875 345.421875 332.074219 354.492188 C 333.003906 396.390625 334.273438 438.285156 335.410156 480.179688 C 335.46875 482.34375 335.417969 484.511719 335.417969 486.902344 C 323.527344 489.742188 311.9375 492.542969 300.332031 495.28125 C 285.402344 498.800781 270.445312 502.21875 255.527344 505.789062 C 245.488281 508.191406 235.738281 507.402344 226.195312 503.59375 C 217.683594 500.203125 213.359375 493.960938 213.15625 484.746094 C 212.753906 466.191406 212.238281 447.636719 211.757812 428.488281 Z M 211.757812 428.488281 " fill-opacity="1" fill-rule="nonzero"/><path fill="#f9f9f9" d="M 366.652344 327.941406 C 364.027344 328.550781 361.890625 329.042969 359.769531 329.601562 C 354.015625 331.105469 349.277344 328.960938 344.6875 325.734375 C 324.4375 311.503906 304.128906 297.355469 283.847656 283.171875 C 275.011719 276.996094 266.109375 270.917969 257.378906 264.597656 C 250.203125 259.40625 248.257812 251.351562 252.054688 244.015625 C 254.539062 239.222656 258.675781 236.769531 263.792969 235.585938 C 278.359375 232.207031 292.910156 228.773438 307.46875 225.355469 C 349.585938 215.46875 391.695312 205.542969 433.828125 195.710938 C 446.773438 192.691406 457.476562 198.171875 462.132812 210.523438 C 463.941406 215.3125 465.351562 220.527344 465.539062 225.601562 C 466.492188 251.535156 466.988281 277.488281 467.664062 304.210938 C 434.132812 312.09375 400.640625 319.972656 366.652344 327.941406 Z M 366.652344 327.941406 " fill-opacity="1" fill-rule="nonzero"/><path fill="#f9f9f9" d="M 458.195312 481.167969 C 461.800781 482.53125 465.226562 483.363281 467.929688 485.234375 C 493.855469 503.191406 519.542969 521.488281 545.542969 539.328125 C 558.027344 547.898438 557.882812 566.035156 546.242188 573.894531 C 543.351562 575.84375 539.792969 577.070312 536.363281 577.898438 C 514.078125 583.277344 491.742188 588.453125 469.425781 593.695312 C 440.894531 600.398438 412.324219 606.925781 383.859375 613.886719 C 369.503906 617.394531 360.386719 610.203125 356.832031 599.648438 C 355.695312 596.273438 354.953125 592.746094 354.257812 589.242188 C 353.832031 587.101562 353.71875 584.878906 353.664062 582.6875 C 353.019531 557.929688 352.410156 533.175781 351.8125 508.421875 C 351.785156 507.265625 351.953125 506.109375 352.046875 504.695312 C 364.632812 501.695312 377.003906 498.710938 389.390625 495.800781 C 408.992188 491.199219 428.597656 486.597656 448.230469 482.128906 C 451.296875 481.429688 454.527344 481.4375 458.195312 481.167969 Z M 458.195312 481.167969 " fill-opacity="1" fill-rule="nonzero"/><path fill="#f8f9f9" d="M 457.269531 450.976562 C 450.285156 457.96875 442.148438 461.921875 433.019531 464.0625 C 407.40625 470.066406 381.804688 476.117188 356.191406 482.121094 C 354.652344 482.480469 353.058594 482.617188 351.257812 482.890625 C 351.125 481.769531 350.933594 480.804688 350.90625 479.839844 C 350.078125 449.503906 349.558594 419.160156 348.351562 388.839844 C 347.539062 368.394531 360.78125 348.890625 382.789062 343.890625 C 410.386719 337.617188 437.890625 330.941406 465.441406 324.460938 C 466.199219 324.285156 467.011719 324.335938 467.996094 324.265625 C 468.132812 325.332031 468.34375 326.296875 468.371094 327.261719 C 469.183594 356.800781 469.9375 386.335938 470.789062 415.871094 C 471.175781 429.328125 466.832031 440.917969 457.269531 450.976562 Z M 457.269531 450.976562 " fill-opacity="1" fill-rule="nonzero"/><path fill="#f8f8f8" d="M 337.386719 545.933594 C 337.742188 559.488281 338.054688 572.453125 338.425781 585.410156 C 338.679688 594.125 335.535156 601.085938 327.71875 605.300781 C 319.914062 609.503906 312.425781 608.363281 305.253906 603.328125 C 278.65625 584.65625 252 566.074219 225.386719 547.425781 C 219.515625 543.308594 219.605469 539.300781 225.746094 535.609375 C 227.921875 534.300781 230.417969 533.332031 232.898438 532.742188 C 266.410156 524.761719 299.945312 516.875 333.480469 508.984375 C 334.234375 508.808594 335.046875 508.890625 336.160156 508.835938 C 336.566406 521.089844 336.964844 533.214844 337.386719 545.933594 Z M 337.386719 545.933594 " fill-opacity="1" fill-rule="nonzero"/><path fill="#f7f8f8" d="M 533.597656 288.6875 C 516.851562 292.65625 500.585938 296.480469 483.78125 300.429688 C 483.570312 298.574219 483.285156 297.085938 483.246094 295.589844 C 482.605469 271.835938 482.027344 248.082031 481.363281 224.332031 C 481.171875 217.480469 483.902344 212.304688 489.875 209.023438 C 495.914062 205.703125 501.765625 206.511719 507.316406 210.390625 C 534.796875 229.589844 562.285156 248.785156 589.765625 267.984375 C 590.582031 268.554688 591.453125 269.09375 592.121094 269.8125 C 593.949219 271.78125 593.519531 273.988281 591.109375 275.09375 C 590.210938 275.503906 589.210938 275.714844 588.242188 275.941406 C 570.1875 280.148438 552.128906 284.339844 533.597656 288.6875 Z M 533.597656 288.6875 " fill-opacity="1" fill-rule="nonzero"/></svg>