<?xml version="1.0" encoding="utf-8"?>
<!-- Generator: Adobe Illustrator 26.0.0, SVG Export Plug-In . SVG Version: 6.00 Build 0)  -->
<svg version="1.1" id="Layer_1" xmlns="http://www.w3.org/2000/svg" xmlns:xlink="http://www.w3.org/1999/xlink" x="0px" y="0px"
	 viewBox="0 0 300 300" style="enable-background:new 0 0 300 300;" xml:space="preserve">
<g>
	<g>
		<path d="M83.97,150.93c-7.86-0.82-13.84-1.52-22.05-2.04c-5.25,1.04-5.6,1.26-7.52,2.8c-1.33,1.06-1.63,2.97-0.7,4.4
			c3.53,5.38,14.32,16.83,36.7,3.07c0,0,0.58-7.15,0.32-7.49C88.58,151.4,86.33,151.17,83.97,150.93z"/>
	</g>
	<g>
		<path d="M92.11,126.89c-0.13-5.78,0.44-10.88,1.64-15.23c-16.31,0.41-36.36,0.45-48.09-4.79C26.54,98.32,26.6,79.88,22.34,58.49
			c-0.62-3.1-5.11-2.96-5.52,0.18c-4.11,31.26-6.71,57.7,12.19,72.15c11.94,9.13,40.8,10.21,62.27,12.9
			C91.95,137.93,92.24,132.28,92.11,126.89z"/>
	</g>
	<path d="M124.19,180.09c-13.2-3.74-15.88-5.69-23.31-11.05c-0.82,1.81-1.24,3.81-1.15,5.86c0.04,1.09,0.23,2.21,0.57,3.31
		c2.12,6.83,9.37,10.64,16.19,8.52c0.55-0.17,1.1-0.38,1.62-0.62c2.74-1.27,4.85-3.44,6.12-6.02
		C124.22,180.09,124.2,180.09,124.19,180.09z"/>
	<g>
		<path d="M180.07,237.04c-0.51-3.6-0.94-6.59-0.94-8.63c0-4.8-1.92-9.24-5.22-12.93c-2.45-2.74-6.58-3.21-9.69-1.24l-0.77,0.5
			c-4.28,2.73-9.15,4.08-14.01,4.08c-5.31,0-10.62-1.62-15.14-4.84c-3.06-2.18-7.27-1.85-9.87,0.85c-3.66,3.8-5.82,8.5-5.82,13.58
			c0,2.13-0.26,5.31-0.51,9.13c-0.16,2.32,0.27,4.67,1.36,6.73c0.95,1.78,2.05,2.88,3.29,3.86l0.01,0.01
			c0.54,0.42,1.27,0.49,1.89,0.2c10.64-4.97,21.98-4.91,24.32-4.84v0.02c0,0,0.08-0.01,0.22-0.02c0.14,0.01,0.23,0.02,0.23,0.02
			v-0.02c2.33-0.07,13.66-0.13,24.31,4.84c0.62,0.29,1.36,0.22,1.9-0.21l0,0v0C178.97,245.5,180.67,241.27,180.07,237.04z
			 M125.59,225.09c0.71-1.27,1.89-3.09,3.5-4.52c1.27-1.13,3.24-0.56,3.84,1.03c1.11,2.94,2.94,5.3,5.19,7.33
			c1.77,1.6,0.47,4.53-1.9,4.19c-3.85-0.55-7.38-2.05-10.33-5.23C125.2,227.13,125.08,225.99,125.59,225.09z M160.09,228.92
			c2.25-2.03,4.09-4.39,5.19-7.33c0.6-1.59,2.58-2.17,3.84-1.03c1.61,1.44,2.79,3.26,3.5,4.52c0.51,0.9,0.39,2.04-0.31,2.8
			c-2.95,3.18-6.47,4.67-10.33,5.23C159.62,233.46,158.32,230.52,160.09,228.92z"/>
		<g>
			<path d="M152.38,248.26l-6.34,0c-4.22,0.12-12,0.81-19.82,3.86c-1.24,0.48-1.63,2.05-0.79,3.08c0.02,0.02,0.03,0.04,0.05,0.06
				c1.78,2.17,4.55,3.26,7.34,2.95l11.76-1.33c3.01-0.34,6.05-0.34,9.06,0l11.76,1.33c2.79,0.32,5.58-0.79,7.35-2.97
				c0.03-0.03,0.05-0.06,0.08-0.1c0.83-1.04,0.44-2.6-0.8-3.08C164.27,249.07,156.58,248.38,152.38,248.26z"/>
		</g>
	</g>
	<g>
		<g>
			<path d="M150.5,108.51c-0.02,0-2.17-0.79-4.8-1.55c-8.49-2.46-25.36-9.83-38.3-0.52c-9.87,7.11-9.44,13.62-9.23,22.97
				c0.17,7.23-0.37,18.08-1.43,25.24l-0.47,4.55c-0.19,1.26,18.38,12.46,31.55,13.68c0,0,5.78-5.63,11.56-6.09
				c0,0-11.78,8.5-9.68,39.7c2.55,0.22,4.98,1.11,7.09,2.61c3.89,2.76,8.97,4.22,13.73,4.22"/>
		</g>
	</g>
	<g>
		<path d="M216.03,150.93c7.86-0.82,13.84-1.52,22.05-2.04c5.25,1.04,5.6,1.26,7.52,2.8c1.33,1.06,1.63,2.97,0.7,4.4
			c-3.53,5.38-14.32,16.83-36.7,3.07c0,0-0.58-7.15-0.32-7.49C211.42,151.4,213.67,151.17,216.03,150.93z"/>
	</g>
	<g>
		<path d="M207.89,126.89c0.13-5.78-0.44-10.88-1.64-15.23c16.31,0.41,36.36,0.45,48.09-4.79c19.13-8.55,19.07-26.99,23.33-48.39
			c0.62-3.1,5.11-2.96,5.52,0.18c4.11,31.26,6.71,57.7-12.19,72.15c-11.94,9.13-40.8,10.21-62.27,12.9
			C208.05,137.93,207.76,132.28,207.89,126.89z"/>
	</g>
	<path d="M175.81,180.09c13.2-3.74,15.88-5.69,23.31-11.05c0.82,1.81,1.24,3.81,1.15,5.86c-0.04,1.09-0.23,2.21-0.57,3.31
		c-2.12,6.83-9.37,10.64-16.19,8.52c-0.55-0.17-1.1-0.38-1.62-0.62c-2.74-1.27-4.85-3.44-6.12-6.02
		C175.78,180.09,175.8,180.09,175.81,180.09z"/>
	<g>
		<g>
			<path d="M149.5,108.51c0.02,0,2.17-0.79,4.8-1.55c8.49-2.46,25.36-9.83,38.3-0.52c9.87,7.11,9.44,13.62,9.23,22.97
				c-0.17,7.23,0.37,18.08,1.43,25.24l0.47,4.55c0.19,1.26-18.38,12.46-31.55,13.68c0,0-5.78-5.63-11.56-6.09
				c0,0,11.78,8.5,9.68,39.7c-2.55,0.22-4.98,1.11-7.09,2.61c-3.89,2.76-8.97,4.22-13.73,4.22"/>
		</g>
	</g>
</g>
</svg>
