<?xml version="1.0" encoding="utf-8"?>
<!-- Generator: Adobe Illustrator 26.0.0, SVG Export Plug-In . SVG Version: 6.00 Build 0)  -->
<svg version="1.1" id="Layer_1" xmlns="http://www.w3.org/2000/svg" xmlns:xlink="http://www.w3.org/1999/xlink" x="0px" y="0px"
	 viewBox="0 0 300 207" style="enable-background:new 0 0 300 207;" xml:space="preserve">
<g>
	<path d="M25.54,64.09h73.28c19.05,0,24.17,9.29,24.17,23.49v5.03c0,10.6-2.45,16.82-13.81,19.45v0.92
		c7.11,1.31,13.04,4.48,13.04,17.48v12.84H98.44v-8.99c0-8.38-2.42-11.13-10-11.13H50.1v19.95H25.54V64.09z M50.1,103.22h40.14
		c6.56,0,8.97-2.62,8.97-8.28v-2.62c0-6.98-3.5-8.28-11.16-8.28H50.1V103.22z"/>
	<path d="M228.91,93.94c-25.51,0.11-28.4-0.11-28.4-6.86c0-4.18,3.64-6,9-6h25.72c11.3,0,11.97,2.44,11.97,8.31h24.6v-2.75
		c0-13.61-2.57-22.94-30.01-22.94h-33.22c-7.46,0-13.15,0.67-17.48,1.89c5.69,4.55,9.34,11.54,9.34,19.38v0.9
		c0,6.29-2.36,12.24-6.51,16.76c2.87,2.4,5.15,5.43,6.69,8.81c4.58,0.35,10.03,0.49,16.54,0.49c30.65,0,33.44,0.43,33.44,7.18
		c0,6-5.14,6.54-10.18,6.54h-29.58c-3.66,0-6.32-0.17-8.02-1.49c-0.46,7.3-4.08,13.75-9.52,18c3.82,0.62,8.35,0.87,13.67,0.87h28.83
		c31.62,0,38.69-3.43,38.69-24.33C274.46,96.09,265.88,93.84,228.91,93.94z"/>
	<path d="M185.77,103.1c5.58-3.69,9.27-10.03,9.27-17.22v-0.9c0-11.39-9.24-20.63-20.63-20.63h-55.51c1.22,0.88,2.33,1.86,3.32,2.97
		c4.2,4.7,6.16,11.14,6.16,20.26v5.03c0,7.58-1.12,15-7.65,19.85c3.9,3.14,6.88,8.52,6.88,18v12.78h49.22
		c11.39,0,20.63-9.24,20.63-20.63v-0.9C197.46,113.51,192.69,106.43,185.77,103.1z M130.71,84.98h37.63c2.01,0,3.64,1.63,3.64,3.64
		v2.18c0,2.01-1.63,3.64-3.64,3.64h-37.63V84.98z M174.41,118.96c0,2.01-1.63,3.64-3.64,3.64h-40.06v-9.47h40.06
		c2.01,0,3.64,1.63,3.64,3.64V118.96z"/>
</g>
</svg>
