<svg xmlns="http://www.w3.org/2000/svg" viewBox="0 0 476.68 301"><g id="Layer_2" data-name="Layer 2"><g id="R_Bull_S"><path d="M142.17,136.53c-11.34-1.17-20-2.19-31.79-2.93-7.57,1.49-8.07,1.82-10.85,4a4.78,4.78,0,0,0-1,6.35c5.09,7.76,20.64,24.26,52.92,4.42,0,0,.83-10.31.46-10.8C148.81,137.22,145.57,136.89,142.17,136.53Z"/><path d="M153.91,101.88a77.19,77.19,0,0,1,2.36-22c-23.51.59-52.43.66-69.34-6.9C59.35,60.68,59.44,34.1,53.3,3.25a4,4,0,0,0-8,.26c-5.93,45.07-9.68,83.2,17.57,104,17.22,13.16,58.83,14.72,89.79,18.6A177.37,177.37,0,0,0,153.91,101.88Z"/><path d="M200.16,178.58c-19-5.39-22.89-8.2-33.61-15.92a18.63,18.63,0,0,0,33.67,15.93Z"/><path d="M280.73,260.7a105.94,105.94,0,0,1-1.35-12.43,27.87,27.87,0,0,0-7.52-18.65,10.93,10.93,0,0,0-14-1.78l-1.12.72a37.65,37.65,0,0,1-42-1.1,11,11,0,0,0-14.24,1.23c-5.28,5.49-8.4,12.26-8.4,19.58,0,3.06-.37,7.65-.74,13.16a18,18,0,0,0,2,9.7,16.78,16.78,0,0,0,4.74,5.57h0a2.64,2.64,0,0,0,2.73.3c15.34-7.17,31.68-7.09,35.06-7v0l.32,0,.32,0v0c3.37-.11,19.7-.19,35.06,7a2.62,2.62,0,0,0,2.74-.3h0A17.25,17.25,0,0,0,280.73,260.7Zm-78.55-17.23a25.81,25.81,0,0,1,5-6.52,3.47,3.47,0,0,1,5.54,1.49A27,27,0,0,0,220.25,249a3.46,3.46,0,0,1-2.73,6.05,24.15,24.15,0,0,1-14.89-7.54A3.46,3.46,0,0,1,202.18,243.47ZM251.93,249a26.93,26.93,0,0,0,7.48-10.56A3.47,3.47,0,0,1,265,237a25.87,25.87,0,0,1,5.05,6.52,3.47,3.47,0,0,1-.45,4,24.18,24.18,0,0,1-14.89,7.54A3.46,3.46,0,0,1,251.93,249Z"/><path d="M240.81,276.88h-9.14a87.79,87.79,0,0,0-28.58,5.57,2.84,2.84,0,0,0-1.14,4.44l.07.09a12,12,0,0,0,10.59,4.25l16.95-1.92a58.11,58.11,0,0,1,13.05,0l17,1.92a12,12,0,0,0,10.6-4.28,1.34,1.34,0,0,0,.11-.14,2.83,2.83,0,0,0-1.15-4.43A88.07,88.07,0,0,0,240.81,276.88Z"/><path d="M238.1,75.38s-3.13-1.14-6.92-2.24C218.94,69.6,194.61,59,176,72.4,161.71,82.65,162.34,92,162.64,105.52a250,250,0,0,1-2.07,36.39l-.67,6.56c-.28,1.83,26.5,18,45.48,19.72,0,0,8.33-8.11,16.67-8.78,0,0-17,12.25-14,57.25a20.62,20.62,0,0,1,10.22,3.76,35,35,0,0,0,19.8,6.09"/><path d="M332.58,136.53c11.33-1.17,20-2.19,31.79-2.93,7.57,1.49,8.07,1.82,10.85,4a4.77,4.77,0,0,1,1,6.35c-5.08,7.76-20.64,24.26-52.91,4.42,0,0-.84-10.31-.46-10.8C325.94,137.22,329.18,136.89,332.58,136.53Z"/><path d="M320.84,101.88a76.81,76.81,0,0,0-2.37-22c23.52.59,52.44.66,69.35-6.9C415.4,60.68,415.31,34.1,421.45,3.25a4,4,0,0,1,8,.26c5.93,45.07,9.68,83.2-17.58,104-17.21,13.16-58.82,14.72-89.78,18.6A175.79,175.79,0,0,1,320.84,101.88Z"/><path d="M274.59,178.58c19-5.39,22.89-8.2,33.61-15.92a18.63,18.63,0,0,1-33.67,15.93Z"/><path d="M236.65,75.38s3.13-1.14,6.92-2.24C255.8,69.6,280.14,59,298.8,72.4,313,82.65,312.41,92,312.11,105.52a250,250,0,0,0,2.07,36.39l.67,6.56c.27,1.83-26.5,18-45.48,19.72,0,0-8.34-8.11-16.67-8.78,0,0,17,12.25,14,57.25a20.62,20.62,0,0,0-10.22,3.76,35,35,0,0,1-19.8,6.09"/><path d="M0,165H122.53c31.85,0,40.41,15.53,40.41,39.27v8.41c0,17.72-4.09,28.13-23.09,32.51v1.55c11.9,2.19,21.81,7.49,21.81,29.22v22.47H121.89v-16c0-14-4-18.61-16.72-18.61H41.06v33.36H0Zm41.06,65.43h67.11c11,0,15-4.37,15-13.85v-4.37c0-11.66-5.85-13.85-18.65-13.85H41.06Z"/><path d="M310.49,257.38H351c.19,13.09,5.85,14.11,17.54,14.11h50.24c8.55,0,17.29-.91,17.29-11.1,0-11.47-4.73-12.2-56.79-12.2-60.8,0-67.71-7.28-67.71-39.68,0-23.84,2.18-42.23,53.15-42.23h56.43c46.59,0,51,15.84,51,38.95v4.68H430.38c0-10-1.13-14.12-20.33-14.12H366.37c-9.1,0-15.29,3.1-15.29,10.19,0,11.47,4.92,11.84,48.24,11.65,62.79-.18,77.36,3.64,77.36,42.05,0,35.5-12,41.32-65.71,41.32H362c-36.77,0-51.51-6.92-51.51-35.49Z"/></g></g></svg>